<mxfile host="65bd71144e">
    <diagram id="Q8ZCVBfkGdzVq4fk389N" name="Page-1">
        <mxGraphModel dx="621" dy="726" grid="1" gridSize="10" guides="1" tooltips="1" connect="1" arrows="1" fold="1" page="1" pageScale="1" pageWidth="827" pageHeight="1169" math="1" shadow="0">
            <root>
                <mxCell id="0"/>
                <mxCell id="1" parent="0"/>
                <mxCell id="bW7pH12YYg1g4J87fSp4-93" value="Table" style="swimlane;fontStyle=1;align=center;verticalAlign=top;childLayout=stackLayout;horizontal=1;startSize=26;horizontalStack=0;resizeParent=1;resizeParentMax=0;resizeLast=0;collapsible=1;marginBottom=0;fontFamily=Alegreya Sans;fontSize=11;fontSource=https%3A%2F%2Ffonts.googleapis.com%2Fcss%3Ffamily%3DAlegreya%2BSans;" parent="1" vertex="1">
                    <mxGeometry x="233" y="110" width="220" height="106" as="geometry">
                        <mxRectangle x="850" y="510" width="80" height="30" as="alternateBounds"/>
                    </mxGeometry>
                </mxCell>
                <mxCell id="bW7pH12YYg1g4J87fSp4-94" value="- invoiceItems: ArrayList&amp;lt;InvoiceItem&amp;gt;" style="text;strokeColor=none;fillColor=none;align=left;verticalAlign=middle;spacingLeft=3;spacingRight=4;overflow=hidden;rotatable=0;points=[[0,0.5],[1,0.5]];portConstraint=eastwest;fontFamily=Alegreya;fontSize=11;fontStyle=0;html=1;imageWidth=24;imageHeight=24;comic=0;imageAspect=0;" parent="bW7pH12YYg1g4J87fSp4-93" vertex="1">
                    <mxGeometry y="26" width="220" height="18" as="geometry"/>
                </mxCell>
                <mxCell id="bW7pH12YYg1g4J87fSp4-96" value="" style="line;strokeWidth=1;fillColor=none;align=left;verticalAlign=middle;spacingTop=-1;spacingLeft=3;spacingRight=3;rotatable=0;labelPosition=right;points=[];portConstraint=eastwest;strokeColor=inherit;fontFamily=Alegreya;fontSize=11;" parent="bW7pH12YYg1g4J87fSp4-93" vertex="1">
                    <mxGeometry y="44" width="220" height="8" as="geometry"/>
                </mxCell>
                <mxCell id="bW7pH12YYg1g4J87fSp4-97" value="+ Table()" style="text;strokeColor=none;fillColor=none;align=left;verticalAlign=middle;spacingLeft=3;spacingRight=4;overflow=hidden;rotatable=0;points=[[0,0.5],[1,0.5]];portConstraint=eastwest;fontFamily=Alegreya;fontSize=11;fontStyle=0;html=1;imageWidth=24;imageHeight=24;comic=0;imageAspect=0;" parent="bW7pH12YYg1g4J87fSp4-93" vertex="1">
                    <mxGeometry y="52" width="220" height="18" as="geometry"/>
                </mxCell>
                <mxCell id="bW7pH12YYg1g4J87fSp4-98" value="+ order(menuEntry: String, quantity: int): void" style="text;strokeColor=none;fillColor=none;align=left;verticalAlign=middle;spacingLeft=3;spacingRight=4;overflow=hidden;rotatable=0;points=[[0,0.5],[1,0.5]];portConstraint=eastwest;fontFamily=Alegreya;fontSize=11;fontStyle=0;html=1;imageWidth=24;imageHeight=24;comic=0;imageAspect=0;" parent="bW7pH12YYg1g4J87fSp4-93" vertex="1">
                    <mxGeometry y="70" width="220" height="18" as="geometry"/>
                </mxCell>
                <mxCell id="bW7pH12YYg1g4J87fSp4-99" value="+ getInvoiceItems(): ArrayList&amp;lt;InvoiceItem&amp;gt;" style="text;strokeColor=none;fillColor=none;align=left;verticalAlign=middle;spacingLeft=3;spacingRight=4;overflow=hidden;rotatable=0;points=[[0,0.5],[1,0.5]];portConstraint=eastwest;fontFamily=Alegreya;fontSize=11;fontStyle=0;html=1;imageWidth=24;imageHeight=24;comic=0;imageAspect=0;" parent="bW7pH12YYg1g4J87fSp4-93" vertex="1">
                    <mxGeometry y="88" width="220" height="18" as="geometry"/>
                </mxCell>
                <mxCell id="bW7pH12YYg1g4J87fSp4-100" value="InvoiceItem" style="swimlane;fontStyle=1;align=center;verticalAlign=top;childLayout=stackLayout;horizontal=1;startSize=26;horizontalStack=0;resizeParent=1;resizeParentMax=0;resizeLast=0;collapsible=1;marginBottom=0;fontFamily=Alegreya Sans;fontSize=11;fontSource=https%3A%2F%2Ffonts.googleapis.com%2Fcss%3Ffamily%3DAlegreya%2BSans;" parent="1" vertex="1">
                    <mxGeometry x="550" y="97" width="230" height="132" as="geometry">
                        <mxRectangle x="850" y="510" width="80" height="30" as="alternateBounds"/>
                    </mxGeometry>
                </mxCell>
                <mxCell id="bW7pH12YYg1g4J87fSp4-101" value="- menuEntry: String" style="text;strokeColor=none;fillColor=none;align=left;verticalAlign=middle;spacingLeft=3;spacingRight=4;overflow=hidden;rotatable=0;points=[[0,0.5],[1,0.5]];portConstraint=eastwest;fontFamily=Alegreya;fontSize=11;fontStyle=0;html=1;imageWidth=24;imageHeight=24;comic=0;imageAspect=0;" parent="bW7pH12YYg1g4J87fSp4-100" vertex="1">
                    <mxGeometry y="26" width="230" height="18" as="geometry"/>
                </mxCell>
                <mxCell id="bW7pH12YYg1g4J87fSp4-102" value="- quantity: int" style="text;strokeColor=none;fillColor=none;align=left;verticalAlign=middle;spacingLeft=3;spacingRight=4;overflow=hidden;rotatable=0;points=[[0,0.5],[1,0.5]];portConstraint=eastwest;fontFamily=Alegreya;fontSize=11;fontStyle=0;html=1;imageWidth=24;imageHeight=24;comic=0;imageAspect=0;" parent="bW7pH12YYg1g4J87fSp4-100" vertex="1">
                    <mxGeometry y="44" width="230" height="18" as="geometry"/>
                </mxCell>
                <mxCell id="bW7pH12YYg1g4J87fSp4-103" value="" style="line;strokeWidth=1;fillColor=none;align=left;verticalAlign=middle;spacingTop=-1;spacingLeft=3;spacingRight=3;rotatable=0;labelPosition=right;points=[];portConstraint=eastwest;strokeColor=inherit;fontFamily=Alegreya;fontSize=11;" parent="bW7pH12YYg1g4J87fSp4-100" vertex="1">
                    <mxGeometry y="62" width="230" height="8" as="geometry"/>
                </mxCell>
                <mxCell id="bW7pH12YYg1g4J87fSp4-104" value="+ InvoiceItem(menuEntry: String, quantity: int)" style="text;strokeColor=none;fillColor=none;align=left;verticalAlign=middle;spacingLeft=3;spacingRight=4;overflow=hidden;rotatable=0;points=[[0,0.5],[1,0.5]];portConstraint=eastwest;fontFamily=Alegreya;fontSize=11;fontStyle=0;html=1;imageWidth=24;imageHeight=24;comic=0;imageAspect=0;" parent="bW7pH12YYg1g4J87fSp4-100" vertex="1">
                    <mxGeometry y="70" width="230" height="18" as="geometry"/>
                </mxCell>
                <mxCell id="bW7pH12YYg1g4J87fSp4-105" value="+ getMenuEntry(): String" style="text;strokeColor=none;fillColor=none;align=left;verticalAlign=middle;spacingLeft=3;spacingRight=4;overflow=hidden;rotatable=0;points=[[0,0.5],[1,0.5]];portConstraint=eastwest;fontFamily=Alegreya;fontSize=11;fontStyle=0;html=1;imageWidth=24;imageHeight=24;comic=0;imageAspect=0;" parent="bW7pH12YYg1g4J87fSp4-100" vertex="1">
                    <mxGeometry y="88" width="230" height="22" as="geometry"/>
                </mxCell>
                <mxCell id="bW7pH12YYg1g4J87fSp4-114" value="+ getQuantity(): int" style="text;strokeColor=none;fillColor=none;align=left;verticalAlign=middle;spacingLeft=3;spacingRight=4;overflow=hidden;rotatable=0;points=[[0,0.5],[1,0.5]];portConstraint=eastwest;fontFamily=Alegreya;fontSize=11;fontStyle=0;html=1;imageWidth=24;imageHeight=24;comic=0;imageAspect=0;" parent="bW7pH12YYg1g4J87fSp4-100" vertex="1">
                    <mxGeometry y="110" width="230" height="22" as="geometry"/>
                </mxCell>
                <mxCell id="bW7pH12YYg1g4J87fSp4-106" value="Menu" style="swimlane;fontStyle=1;align=center;verticalAlign=top;childLayout=stackLayout;horizontal=1;startSize=26;horizontalStack=0;resizeParent=1;resizeParentMax=0;resizeLast=0;collapsible=1;marginBottom=0;fontFamily=Alegreya Sans;fontSize=11;fontSource=https%3A%2F%2Ffonts.googleapis.com%2Fcss%3Ffamily%3DAlegreya%2BSans;" parent="1" vertex="1">
                    <mxGeometry x="213.5" y="460" width="259" height="106" as="geometry">
                        <mxRectangle x="850" y="510" width="80" height="30" as="alternateBounds"/>
                    </mxGeometry>
                </mxCell>
                <mxCell id="bW7pH12YYg1g4J87fSp4-107" value="- menuEntries: ArrayList&amp;lt;MenuEntry&amp;gt;" style="text;strokeColor=none;fillColor=none;align=left;verticalAlign=middle;spacingLeft=3;spacingRight=4;overflow=hidden;rotatable=0;points=[[0,0.5],[1,0.5]];portConstraint=eastwest;fontFamily=Alegreya;fontSize=11;fontStyle=0;html=1;imageWidth=24;imageHeight=24;comic=0;imageAspect=0;" parent="bW7pH12YYg1g4J87fSp4-106" vertex="1">
                    <mxGeometry y="26" width="259" height="18" as="geometry"/>
                </mxCell>
                <mxCell id="bW7pH12YYg1g4J87fSp4-109" value="" style="line;strokeWidth=1;fillColor=none;align=left;verticalAlign=middle;spacingTop=-1;spacingLeft=3;spacingRight=3;rotatable=0;labelPosition=right;points=[];portConstraint=eastwest;strokeColor=inherit;fontFamily=Alegreya;fontSize=11;" parent="bW7pH12YYg1g4J87fSp4-106" vertex="1">
                    <mxGeometry y="44" width="259" height="8" as="geometry"/>
                </mxCell>
                <mxCell id="bW7pH12YYg1g4J87fSp4-110" value="&lt;div&gt;&lt;span style=&quot;background-color: transparent; color: light-dark(rgb(0, 0, 0), rgb(255, 255, 255));&quot;&gt;+ Menu()&lt;/span&gt;&lt;/div&gt;" style="text;strokeColor=none;fillColor=none;align=left;verticalAlign=middle;spacingLeft=3;spacingRight=4;overflow=hidden;rotatable=0;points=[[0,0.5],[1,0.5]];portConstraint=eastwest;fontFamily=Alegreya;fontSize=11;fontStyle=0;html=1;imageWidth=24;imageHeight=24;comic=0;imageAspect=0;" parent="bW7pH12YYg1g4J87fSp4-106" vertex="1">
                    <mxGeometry y="52" width="259" height="18" as="geometry"/>
                </mxCell>
                <mxCell id="bW7pH12YYg1g4J87fSp4-111" value="+ addMenuEntry(name: String, price: double): void" style="text;strokeColor=none;fillColor=none;align=left;verticalAlign=middle;spacingLeft=3;spacingRight=4;overflow=hidden;rotatable=0;points=[[0,0.5],[1,0.5]];portConstraint=eastwest;fontFamily=Alegreya;fontSize=11;fontStyle=0;html=1;imageWidth=24;imageHeight=24;comic=0;imageAspect=0;" parent="bW7pH12YYg1g4J87fSp4-106" vertex="1">
                    <mxGeometry y="70" width="259" height="18" as="geometry"/>
                </mxCell>
                <mxCell id="bW7pH12YYg1g4J87fSp4-113" value="+ getMenuEntry(name: String): MenuEntry" style="text;strokeColor=none;fillColor=none;align=left;verticalAlign=middle;spacingLeft=3;spacingRight=4;overflow=hidden;rotatable=0;points=[[0,0.5],[1,0.5]];portConstraint=eastwest;fontFamily=Alegreya;fontSize=11;fontStyle=0;html=1;imageWidth=24;imageHeight=24;comic=0;imageAspect=0;" parent="bW7pH12YYg1g4J87fSp4-106" vertex="1">
                    <mxGeometry y="88" width="259" height="18" as="geometry"/>
                </mxCell>
                <mxCell id="71" value="OrderingSystem" style="swimlane;fontStyle=1;align=center;verticalAlign=top;childLayout=stackLayout;horizontal=1;startSize=26;horizontalStack=0;resizeParent=1;resizeParentMax=0;resizeLast=0;collapsible=1;marginBottom=0;fontFamily=Alegreya Sans;fontSize=11;fontSource=https%3A%2F%2Ffonts.googleapis.com%2Fcss%3Ffamily%3DAlegreya%2BSans;" parent="1" vertex="1">
                    <mxGeometry x="190" y="280" width="306" height="124" as="geometry">
                        <mxRectangle x="850" y="510" width="80" height="30" as="alternateBounds"/>
                    </mxGeometry>
                </mxCell>
                <mxCell id="72" value="- menu: Menu" style="text;strokeColor=none;fillColor=none;align=left;verticalAlign=middle;spacingLeft=3;spacingRight=4;overflow=hidden;rotatable=0;points=[[0,0.5],[1,0.5]];portConstraint=eastwest;fontFamily=Alegreya;fontSize=11;fontStyle=0;html=1;imageWidth=24;imageHeight=24;comic=0;imageAspect=0;" parent="71" vertex="1">
                    <mxGeometry y="26" width="306" height="18" as="geometry"/>
                </mxCell>
                <mxCell id="79" value="- tables: ArrayList&amp;lt;Table&amp;gt;" style="text;strokeColor=none;fillColor=none;align=left;verticalAlign=middle;spacingLeft=3;spacingRight=4;overflow=hidden;rotatable=0;points=[[0,0.5],[1,0.5]];portConstraint=eastwest;fontFamily=Alegreya;fontSize=11;fontStyle=0;html=1;imageWidth=24;imageHeight=24;comic=0;imageAspect=0;" parent="71" vertex="1">
                    <mxGeometry y="44" width="306" height="18" as="geometry"/>
                </mxCell>
                <mxCell id="73" value="" style="line;strokeWidth=1;fillColor=none;align=left;verticalAlign=middle;spacingTop=-1;spacingLeft=3;spacingRight=3;rotatable=0;labelPosition=right;points=[];portConstraint=eastwest;strokeColor=inherit;fontFamily=Alegreya;fontSize=11;" parent="71" vertex="1">
                    <mxGeometry y="62" width="306" height="8" as="geometry"/>
                </mxCell>
                <mxCell id="74" value="&lt;div&gt;&lt;span style=&quot;background-color: transparent; color: light-dark(rgb(0, 0, 0), rgb(255, 255, 255));&quot;&gt;+ OrderingSystem(numberOfTables: int)&lt;/span&gt;&lt;/div&gt;" style="text;strokeColor=none;fillColor=none;align=left;verticalAlign=middle;spacingLeft=3;spacingRight=4;overflow=hidden;rotatable=0;points=[[0,0.5],[1,0.5]];portConstraint=eastwest;fontFamily=Alegreya;fontSize=11;fontStyle=0;html=1;imageWidth=24;imageHeight=24;comic=0;imageAspect=0;" parent="71" vertex="1">
                    <mxGeometry y="70" width="306" height="18" as="geometry"/>
                </mxCell>
                <mxCell id="75" value="+ order(tableNumber: int, menuEntry: String, quantity: int): void" style="text;strokeColor=none;fillColor=none;align=left;verticalAlign=middle;spacingLeft=3;spacingRight=4;overflow=hidden;rotatable=0;points=[[0,0.5],[1,0.5]];portConstraint=eastwest;fontFamily=Alegreya;fontSize=11;fontStyle=0;html=1;imageWidth=24;imageHeight=24;comic=0;imageAspect=0;" parent="71" vertex="1">
                    <mxGeometry y="88" width="306" height="18" as="geometry"/>
                </mxCell>
                <mxCell id="76" value="+ printInvoice(tableNumber: int): void" style="text;strokeColor=none;fillColor=none;align=left;verticalAlign=middle;spacingLeft=3;spacingRight=4;overflow=hidden;rotatable=0;points=[[0,0.5],[1,0.5]];portConstraint=eastwest;fontFamily=Alegreya;fontSize=11;fontStyle=0;html=1;imageWidth=24;imageHeight=24;comic=0;imageAspect=0;" parent="71" vertex="1">
                    <mxGeometry y="106" width="306" height="18" as="geometry"/>
                </mxCell>
                <mxCell id="80" value="MenuEntry" style="swimlane;fontStyle=1;align=center;verticalAlign=top;childLayout=stackLayout;horizontal=1;startSize=26;horizontalStack=0;resizeParent=1;resizeParentMax=0;resizeLast=0;collapsible=1;marginBottom=0;fontFamily=Alegreya Sans;fontSize=11;fontSource=https%3A%2F%2Ffonts.googleapis.com%2Fcss%3Ffamily%3DAlegreya%2BSans;" parent="1" vertex="1">
                    <mxGeometry x="560" y="451" width="200" height="124" as="geometry">
                        <mxRectangle x="850" y="510" width="80" height="30" as="alternateBounds"/>
                    </mxGeometry>
                </mxCell>
                <mxCell id="81" value="- name: String" style="text;strokeColor=none;fillColor=none;align=left;verticalAlign=middle;spacingLeft=3;spacingRight=4;overflow=hidden;rotatable=0;points=[[0,0.5],[1,0.5]];portConstraint=eastwest;fontFamily=Alegreya;fontSize=11;fontStyle=0;html=1;imageWidth=24;imageHeight=24;comic=0;imageAspect=0;" parent="80" vertex="1">
                    <mxGeometry y="26" width="200" height="18" as="geometry"/>
                </mxCell>
                <mxCell id="82" value="- price: double" style="text;strokeColor=none;fillColor=none;align=left;verticalAlign=middle;spacingLeft=3;spacingRight=4;overflow=hidden;rotatable=0;points=[[0,0.5],[1,0.5]];portConstraint=eastwest;fontFamily=Alegreya;fontSize=11;fontStyle=0;html=1;imageWidth=24;imageHeight=24;comic=0;imageAspect=0;" parent="80" vertex="1">
                    <mxGeometry y="44" width="200" height="18" as="geometry"/>
                </mxCell>
                <mxCell id="83" value="" style="line;strokeWidth=1;fillColor=none;align=left;verticalAlign=middle;spacingTop=-1;spacingLeft=3;spacingRight=3;rotatable=0;labelPosition=right;points=[];portConstraint=eastwest;strokeColor=inherit;fontFamily=Alegreya;fontSize=11;" parent="80" vertex="1">
                    <mxGeometry y="62" width="200" height="8" as="geometry"/>
                </mxCell>
                <mxCell id="84" value="&lt;div&gt;&lt;span style=&quot;background-color: transparent; color: light-dark(rgb(0, 0, 0), rgb(255, 255, 255));&quot;&gt;+ MenuEntry(name: String, price: double)&lt;/span&gt;&lt;/div&gt;" style="text;strokeColor=none;fillColor=none;align=left;verticalAlign=middle;spacingLeft=3;spacingRight=4;overflow=hidden;rotatable=0;points=[[0,0.5],[1,0.5]];portConstraint=eastwest;fontFamily=Alegreya;fontSize=11;fontStyle=0;html=1;imageWidth=24;imageHeight=24;comic=0;imageAspect=0;" parent="80" vertex="1">
                    <mxGeometry y="70" width="200" height="18" as="geometry"/>
                </mxCell>
                <mxCell id="85" value="+ getName(): String" style="text;strokeColor=none;fillColor=none;align=left;verticalAlign=middle;spacingLeft=3;spacingRight=4;overflow=hidden;rotatable=0;points=[[0,0.5],[1,0.5]];portConstraint=eastwest;fontFamily=Alegreya;fontSize=11;fontStyle=0;html=1;imageWidth=24;imageHeight=24;comic=0;imageAspect=0;" parent="80" vertex="1">
                    <mxGeometry y="88" width="200" height="18" as="geometry"/>
                </mxCell>
                <mxCell id="86" value="+ getPrice(): double" style="text;strokeColor=none;fillColor=none;align=left;verticalAlign=middle;spacingLeft=3;spacingRight=4;overflow=hidden;rotatable=0;points=[[0,0.5],[1,0.5]];portConstraint=eastwest;fontFamily=Alegreya;fontSize=11;fontStyle=0;html=1;imageWidth=24;imageHeight=24;comic=0;imageAspect=0;" parent="80" vertex="1">
                    <mxGeometry y="106" width="200" height="18" as="geometry"/>
                </mxCell>
                <mxCell id="88" value="" style="endArrow=none;shadow=0;strokeWidth=1;rounded=0;endFill=0;elbow=vertical;" parent="1" source="bW7pH12YYg1g4J87fSp4-93" target="bW7pH12YYg1g4J87fSp4-100" edge="1">
                    <mxGeometry x="0.5" y="41" relative="1" as="geometry">
                        <mxPoint x="470" y="210" as="sourcePoint"/>
                        <mxPoint x="670" y="210" as="targetPoint"/>
                        <mxPoint x="-40" y="32" as="offset"/>
                    </mxGeometry>
                </mxCell>
                <mxCell id="89" value="1" style="resizable=0;align=left;verticalAlign=bottom;labelBackgroundColor=none;fontSize=12;fontFamily=Alegreya;spacingBottom=2;" parent="88" connectable="0" vertex="1">
                    <mxGeometry x="-1" relative="1" as="geometry">
                        <mxPoint y="-1" as="offset"/>
                    </mxGeometry>
                </mxCell>
                <mxCell id="90" value="n" style="resizable=0;align=right;verticalAlign=bottom;labelBackgroundColor=none;fontSize=12;fontFamily=Alegreya;spacingBottom=2;" parent="88" connectable="0" vertex="1">
                    <mxGeometry x="1" relative="1" as="geometry">
                        <mxPoint y="1" as="offset"/>
                    </mxGeometry>
                </mxCell>
                <mxCell id="91" value="hasOrdered&amp;nbsp;&lt;span style=&quot;text-align: left;&quot;&gt;▸&lt;/span&gt;" style="text;html=1;resizable=0;points=[];;align=center;verticalAlign=middle;labelBackgroundColor=none;rounded=0;shadow=0;strokeWidth=1;fontSize=12;fontFamily=Alegreya;" parent="88" vertex="1" connectable="0">
                    <mxGeometry relative="1" as="geometry">
                        <mxPoint y="-10" as="offset"/>
                    </mxGeometry>
                </mxCell>
                <mxCell id="92" value="" style="endArrow=none;shadow=0;strokeWidth=1;rounded=0;endFill=0;elbow=vertical;" parent="1" source="bW7pH12YYg1g4J87fSp4-106" target="80" edge="1">
                    <mxGeometry x="0.5" y="41" relative="1" as="geometry">
                        <mxPoint x="400" y="484.65999999999997" as="sourcePoint"/>
                        <mxPoint x="600" y="484.65999999999997" as="targetPoint"/>
                        <mxPoint x="-40" y="32" as="offset"/>
                    </mxGeometry>
                </mxCell>
                <mxCell id="93" value="1" style="resizable=0;align=left;verticalAlign=bottom;labelBackgroundColor=none;fontSize=12;fontFamily=Alegreya;spacingBottom=2;" parent="92" connectable="0" vertex="1">
                    <mxGeometry x="-1" relative="1" as="geometry">
                        <mxPoint y="-1" as="offset"/>
                    </mxGeometry>
                </mxCell>
                <mxCell id="94" value="n" style="resizable=0;align=right;verticalAlign=bottom;labelBackgroundColor=none;fontSize=12;fontFamily=Alegreya;spacingBottom=2;" parent="92" connectable="0" vertex="1">
                    <mxGeometry x="1" relative="1" as="geometry">
                        <mxPoint y="1" as="offset"/>
                    </mxGeometry>
                </mxCell>
                <mxCell id="95" value="contains&amp;nbsp;&lt;span style=&quot;text-align: left;&quot;&gt;▸&lt;/span&gt;" style="text;html=1;resizable=0;points=[];;align=center;verticalAlign=middle;labelBackgroundColor=none;rounded=0;shadow=0;strokeWidth=1;fontSize=12;fontFamily=Alegreya;" parent="92" vertex="1" connectable="0">
                    <mxGeometry relative="1" as="geometry">
                        <mxPoint y="-10" as="offset"/>
                    </mxGeometry>
                </mxCell>
                <mxCell id="96" value="" style="endArrow=none;shadow=0;strokeWidth=1;rounded=0;endFill=0;elbow=vertical;" parent="1" source="71" target="bW7pH12YYg1g4J87fSp4-93" edge="1">
                    <mxGeometry x="0.5" y="41" relative="1" as="geometry">
                        <mxPoint x="480" y="250" as="sourcePoint"/>
                        <mxPoint x="480" y="180" as="targetPoint"/>
                        <mxPoint x="-40" y="32" as="offset"/>
                    </mxGeometry>
                </mxCell>
                <mxCell id="97" value="1" style="resizable=0;align=left;verticalAlign=bottom;labelBackgroundColor=none;fontSize=12;fontFamily=Alegreya;spacingBottom=2;" parent="96" connectable="0" vertex="1">
                    <mxGeometry x="-0.7" relative="1" as="geometry">
                        <mxPoint x="7" y="10" as="offset"/>
                    </mxGeometry>
                </mxCell>
                <mxCell id="98" value="n" style="resizable=0;align=right;verticalAlign=bottom;labelBackgroundColor=none;fontSize=12;fontFamily=Alegreya;spacingBottom=2;" parent="96" connectable="0" vertex="1">
                    <mxGeometry x="0.7" relative="1" as="geometry">
                        <mxPoint x="12" y="9" as="offset"/>
                    </mxGeometry>
                </mxCell>
                <mxCell id="99" value="manages&amp;nbsp;&lt;span style=&quot;text-align: left;&quot;&gt;▴&lt;/span&gt;" style="text;html=1;resizable=0;points=[];;align=center;verticalAlign=middle;labelBackgroundColor=none;rounded=0;shadow=0;strokeWidth=1;fontSize=12;fontFamily=Alegreya;" parent="96" vertex="1" connectable="0">
                    <mxGeometry relative="1" as="geometry">
                        <mxPoint x="38" as="offset"/>
                    </mxGeometry>
                </mxCell>
                <mxCell id="100" value="" style="endArrow=none;shadow=0;strokeWidth=1;rounded=0;endFill=0;elbow=vertical;" parent="1" source="71" target="bW7pH12YYg1g4J87fSp4-106" edge="1">
                    <mxGeometry x="0.5" y="41" relative="1" as="geometry">
                        <mxPoint x="270" y="637" as="sourcePoint"/>
                        <mxPoint x="270" y="708" as="targetPoint"/>
                        <mxPoint x="-40" y="32" as="offset"/>
                    </mxGeometry>
                </mxCell>
                <mxCell id="101" value="1" style="resizable=0;align=left;verticalAlign=bottom;labelBackgroundColor=none;fontSize=12;fontFamily=Alegreya;spacingBottom=2;" parent="100" connectable="0" vertex="1">
                    <mxGeometry x="-0.7" relative="1" as="geometry">
                        <mxPoint x="3" y="17" as="offset"/>
                    </mxGeometry>
                </mxCell>
                <mxCell id="102" value="n" style="resizable=0;align=right;verticalAlign=bottom;labelBackgroundColor=none;fontSize=12;fontFamily=Alegreya;spacingBottom=2;" parent="100" connectable="0" vertex="1">
                    <mxGeometry relative="1" as="geometry">
                        <mxPoint x="14" y="28" as="offset"/>
                    </mxGeometry>
                </mxCell>
                <mxCell id="103" value="has&amp;nbsp;&lt;span style=&quot;text-align: left;&quot;&gt;▾&lt;/span&gt;" style="text;html=1;resizable=0;points=[];;align=center;verticalAlign=middle;labelBackgroundColor=none;rounded=0;shadow=0;strokeWidth=1;fontSize=12;fontFamily=Alegreya;" parent="100" vertex="1" connectable="0">
                    <mxGeometry relative="1" as="geometry">
                        <mxPoint x="27" as="offset"/>
                    </mxGeometry>
                </mxCell>
            </root>
        </mxGraphModel>
    </diagram>
</mxfile>
